<?xml version="1.0" standalone="no"?>
<svg xmlns:xlink="http://www.w3.org/1999/xlink" id="wave" style="transform:rotate(0deg); transition: 0.3s" viewBox="0 0 1440 490" version="1.1" xmlns="http://www.w3.org/2000/svg"><defs><linearGradient id="sw-gradient-0" x1="0" x2="0" y1="1" y2="0"><stop stop-color="rgba(66, 135, 169, 1)" offset="0%"/><stop stop-color="rgba(66, 169, 131, 1)" offset="100%"/></linearGradient></defs><path style="transform:translate(0, 0px); opacity:1" fill="url(#sw-gradient-0)" d="M0,294L10,277.7C20,261,40,229,60,179.7C80,131,100,65,120,40.8C140,16,160,33,180,73.5C200,114,220,180,240,245C260,310,280,376,300,408.3C320,441,340,441,360,408.3C380,376,400,310,420,277.7C440,245,460,245,480,228.7C500,212,520,180,540,147C560,114,580,82,600,73.5C620,65,640,82,660,89.8C680,98,700,98,720,114.3C740,131,760,163,780,196C800,229,820,261,840,253.2C860,245,880,196,900,163.3C920,131,940,114,960,155.2C980,196,1000,294,1020,326.7C1040,359,1060,327,1080,302.2C1100,278,1120,261,1140,277.7C1160,294,1180,343,1200,359.3C1220,376,1240,359,1260,302.2C1280,245,1300,147,1320,114.3C1340,82,1360,114,1380,138.8C1400,163,1420,180,1430,187.8L1440,196L1440,490L1430,490C1420,490,1400,490,1380,490C1360,490,1340,490,1320,490C1300,490,1280,490,1260,490C1240,490,1220,490,1200,490C1180,490,1160,490,1140,490C1120,490,1100,490,1080,490C1060,490,1040,490,1020,490C1000,490,980,490,960,490C940,490,920,490,900,490C880,490,860,490,840,490C820,490,800,490,780,490C760,490,740,490,720,490C700,490,680,490,660,490C640,490,620,490,600,490C580,490,560,490,540,490C520,490,500,490,480,490C460,490,440,490,420,490C400,490,380,490,360,490C340,490,320,490,300,490C280,490,260,490,240,490C220,490,200,490,180,490C160,490,140,490,120,490C100,490,80,490,60,490C40,490,20,490,10,490L0,490Z"/></svg>